<svg width="35" height="35" viewBox="0 0 35 35" fill="none" xmlns="http://www.w3.org/2000/svg">
<g id="Iconsax/Linear/facebook">
<path id="Vector" d="M20.4167 13.5625V17.7917H24.2083C24.5 17.7917 24.6458 18.0833 24.6458 18.375L24.0625 21.1458C24.0625 21.2917 23.7708 21.4375 23.625 21.4375H20.4167V32.0833H16.0417V21.5833H13.5625C13.2708 21.5833 13.125 21.4375 13.125 21.1458V18.375C13.125 18.0833 13.2708 17.9375 13.5625 17.9375H16.0417V13.125C16.0417 10.6458 17.9375 8.75 20.4167 8.75H24.3542C24.6458 8.75 24.7917 8.89583 24.7917 9.1875V12.6875C24.7917 12.9792 24.6458 13.125 24.3542 13.125H20.8542C20.5625 13.125 20.4167 13.2708 20.4167 13.5625Z" stroke="white" stroke-width="1.54" stroke-miterlimit="10" stroke-linecap="round"/>
<path id="Vector_2" d="M21.875 32.0834H13.125C5.83332 32.0834 2.91666 29.1667 2.91666 21.8751V13.1251C2.91666 5.83341 5.83332 2.91675 13.125 2.91675H21.875C29.1667 2.91675 32.0833 5.83341 32.0833 13.1251V21.8751C32.0833 29.1667 29.1667 32.0834 21.875 32.0834Z" stroke="white" stroke-width="1.54" stroke-linecap="round" stroke-linejoin="round"/>
</g>
</svg>
