<svg width="35" height="35" viewBox="0 0 35 35" fill="none" xmlns="http://www.w3.org/2000/svg">
<g id="Iconsax/Linear/instagram">
<path id="Vector" d="M13.125 32.0834H21.875C29.1667 32.0834 32.0833 29.1667 32.0833 21.8751V13.1251C32.0833 5.83341 29.1667 2.91675 21.875 2.91675H13.125C5.83332 2.91675 2.91666 5.83341 2.91666 13.1251V21.8751C2.91666 29.1667 5.83332 32.0834 13.125 32.0834Z" stroke="white" stroke-width="1.54" stroke-linecap="round" stroke-linejoin="round"/>
<path id="Vector_2" d="M17.5 22.6041C18.1703 22.6041 18.834 22.4721 19.4533 22.2156C20.0726 21.959 20.6352 21.5831 21.1092 21.1091C21.5832 20.6351 21.9591 20.0725 22.2156 19.4532C22.4722 18.8339 22.6042 18.1702 22.6042 17.4999C22.6042 16.8296 22.4722 16.1659 22.2156 15.5466C21.9591 14.9274 21.5832 14.3647 21.1092 13.8907C20.6352 13.4168 20.0726 13.0408 19.4533 12.7843C18.834 12.5278 18.1703 12.3958 17.5 12.3958C16.1463 12.3958 14.848 12.9335 13.8908 13.8907C12.9336 14.8479 12.3958 16.1462 12.3958 17.4999C12.3958 18.8536 12.9336 20.1519 13.8908 21.1091C14.848 22.0663 16.1463 22.6041 17.5 22.6041Z" stroke="white" stroke-width="1.54" stroke-linecap="round" stroke-linejoin="round"/>
<path id="Vector_3" d="M25.7192 10.2083H25.7367" stroke="white" stroke-width="1.54" stroke-linecap="round" stroke-linejoin="round"/>
</g>
</svg>
