<svg width="50" height="50" viewBox="0 0 50 50" fill="none" xmlns="http://www.w3.org/2000/svg">
<g id="phone-call">
<path id="Vector" d="M31.3542 10.4166C33.389 10.8136 35.2591 11.8088 36.7251 13.2748C38.1911 14.7408 39.1863 16.6109 39.5833 18.6458M31.3542 2.08325C35.5818 2.55291 39.5241 4.44612 42.5338 7.45202C45.5435 10.4579 47.4417 14.3979 47.9167 18.6249M45.8333 35.2499V41.4999C45.8357 42.0801 45.7168 42.6544 45.4844 43.1861C45.2519 43.7177 44.911 44.1949 44.4835 44.5871C44.0559 44.9794 43.5512 45.278 43.0016 45.4639C42.4519 45.6498 41.8695 45.7188 41.2917 45.6666C34.8809 44.97 28.7229 42.7794 23.3125 39.2708C18.2788 36.0721 14.0111 31.8044 10.8125 26.7708C7.29161 21.3358 5.1005 15.1478 4.41666 8.70825C4.3646 8.13214 4.43307 7.5515 4.6177 7.0033C4.80234 6.4551 5.0991 5.95135 5.48909 5.52413C5.87908 5.0969 6.35375 4.75556 6.88289 4.52184C7.41203 4.28812 7.98404 4.16713 8.56249 4.16659H14.8125C15.8235 4.15663 16.8037 4.51467 17.5703 5.17395C18.3369 5.83322 18.8377 6.74877 18.9792 7.74992C19.243 9.75006 19.7322 11.7139 20.4375 13.6041C20.7178 14.3498 20.7785 15.1602 20.6123 15.9393C20.4461 16.7183 20.0601 17.4335 19.5 17.9999L16.8542 20.6458C19.8199 25.8615 24.1384 30.18 29.3542 33.1458L32 30.4999C32.5664 29.9398 33.2816 29.5538 34.0607 29.3876C34.8398 29.2215 35.6501 29.2821 36.3958 29.5624C38.286 30.2677 40.2499 30.757 42.25 31.0208C43.262 31.1635 44.1862 31.6733 44.8469 32.453C45.5076 33.2328 45.8587 34.2282 45.8333 35.2499Z" stroke="#06C269" stroke-width="4.16667" stroke-linecap="round" stroke-linejoin="round"/>
</g>
</svg>
