<svg width="37" height="31" viewBox="0 0 37 31" fill="none" xmlns="http://www.w3.org/2000/svg">
<path d="M36 1.016C34.4765 2.09062 32.7897 2.91253 31.0045 3.45008C30.0464 2.3484 28.773 1.56755 27.3566 1.21315C25.9403 0.858753 24.4492 0.9479 23.0851 1.46854C21.7211 1.98917 20.5498 2.91617 19.7297 4.12417C18.9097 5.33217 18.4804 6.76287 18.5 8.22278V9.81369C15.7042 9.88618 12.9338 9.26612 10.4357 8.00872C7.93755 6.75133 5.78914 4.89563 4.18182 2.6069C4.18182 2.6069 -2.18182 16.925 12.1364 23.2886C8.85993 25.5127 4.95684 26.6278 1 26.4704C15.3182 34.4249 32.8182 26.4704 32.8182 8.17506C32.8167 7.73192 32.7741 7.28987 32.6909 6.85461C34.3146 5.25335 35.4604 3.23167 36 1.016Z" stroke="white" stroke-width="1.54" stroke-linecap="round" stroke-linejoin="round"/>
</svg>
